<svg width="42" height="43" viewBox="0 0 42 43" fill="none" xmlns="http://www.w3.org/2000/svg">
<path d="M35.7461 35.9234C35.6357 36.0341 35.5392 36.1309 35.4289 36.2416C35.3875 36.2831 35.3461 36.3246 35.291 36.3661C35.2634 36.3938 35.2358 36.4214 35.2082 36.4353C35.1807 36.4629 35.1531 36.4906 35.1255 36.5183C35.0841 36.5598 35.029 36.6013 34.9876 36.6428C34.9738 36.6566 34.96 36.6705 34.9324 36.6843C34.8773 36.7396 34.8221 36.795 34.7532 36.8365C34.698 36.8918 34.6429 36.9333 34.5739 36.9886C34.5187 37.0301 34.4774 37.0716 34.4222 37.1131C34.3808 37.1546 34.3257 37.1961 34.2843 37.2238C34.2567 37.2376 34.2429 37.2653 34.2154 37.2791C34.174 37.3206 34.1326 37.3483 34.0913 37.3898C33.912 37.5282 33.7327 37.6665 33.5534 37.8048C33.4983 37.8463 33.4431 37.8878 33.4018 37.9293C33.3466 37.9708 33.2914 38.0123 33.2501 38.04C33.2225 38.0539 33.2087 38.0677 33.1811 38.0954C33.1397 38.123 33.0984 38.1507 33.0708 38.1784C32.9467 38.2614 32.8226 38.3444 32.7123 38.4274C32.6709 38.455 32.6295 38.4827 32.6019 38.5104C32.5468 38.5519 32.4916 38.5795 32.4365 38.621C32.3813 38.6487 32.3399 38.6902 32.2848 38.7179C32.271 38.7317 32.2434 38.7456 32.2296 38.7456C32.1744 38.7732 32.1193 38.8147 32.0641 38.8424C31.9814 38.8977 31.8986 38.9531 31.8021 39.0084C31.7332 39.0499 31.6504 39.0914 31.5815 39.1329C31.5263 39.1606 31.4849 39.1882 31.4298 39.2159C31.3746 39.2574 31.3057 39.2851 31.2505 39.3127C31.1954 39.3404 31.1264 39.3819 31.0712 39.4096C31.0575 39.4234 31.0437 39.4234 31.0299 39.4373C30.9747 39.4649 30.9333 39.4926 30.8782 39.5203C30.7403 39.5894 30.6162 39.6586 30.4783 39.7278C30.4231 39.7554 30.3817 39.7831 30.3266 39.7969C30.3128 39.7969 30.299 39.8108 30.299 39.8108C30.2576 39.8384 30.2025 39.8523 30.1611 39.8799C30.1059 39.9076 30.037 39.9353 29.9818 39.9629C29.9129 39.9906 29.8439 40.0321 29.775 40.0598C29.706 40.0874 29.6371 40.129 29.5543 40.1566C29.513 40.1705 29.4716 40.1981 29.444 40.212C29.2785 40.2811 29.1131 40.3641 28.9338 40.4333C28.8786 40.461 28.8373 40.4748 28.7821 40.5025C28.5753 40.5855 28.3684 40.6685 28.1753 40.7376C28.1202 40.7653 28.065 40.7791 27.9961 40.8068C27.9409 40.8206 27.8858 40.8483 27.8306 40.8621C27.7616 40.8898 27.6927 40.9037 27.6237 40.9313C27.5824 40.9452 27.5548 40.959 27.5134 40.9728C27.4169 41.0005 27.3066 41.042 27.1963 41.0697H27.1825C27.1273 41.0835 27.0721 41.0973 27.017 41.125C26.9618 41.1388 26.8929 41.1665 26.8377 41.1803C26.7963 41.1942 26.755 41.208 26.7274 41.208C26.686 41.2218 26.6309 41.2357 26.5895 41.2495C26.3551 41.3187 26.1344 41.374 25.9 41.4293C25.831 41.4432 25.7621 41.457 25.6931 41.4847C25.6794 41.4847 25.6656 41.4847 25.6518 41.4985C25.5966 41.5123 25.5415 41.5262 25.4863 41.54C25.3208 41.5815 25.1415 41.6092 24.9761 41.6507C24.9209 41.6645 24.8795 41.6645 24.8244 41.6784C24.7968 41.6784 24.7692 41.6922 24.7416 41.6922C24.7003 41.6922 24.6727 41.706 24.6313 41.706C24.5624 41.7199 24.5072 41.7337 24.4383 41.7337C24.3555 41.7475 24.2728 41.7614 24.19 41.7752C24.1487 41.789 24.0935 41.789 24.0521 41.789C23.9832 41.8029 23.9142 41.8167 23.8453 41.8167C23.7901 41.8305 23.7488 41.8305 23.6936 41.8305C23.6246 41.8444 23.5419 41.8444 23.4729 41.8582C23.2109 41.8859 22.9489 41.9135 22.6869 41.9412C22.6042 41.955 22.5214 41.955 22.4387 41.955C22.3697 41.955 22.3008 41.9689 22.2318 41.9689C22.2043 41.9689 22.1767 41.9689 22.1491 41.9689C22.0802 41.9689 22.0112 41.9827 21.9423 41.9827C21.8595 41.9827 21.7768 41.9965 21.694 41.9965C21.5975 41.9965 21.501 41.9965 21.4044 42.0104C21.3355 42.0104 21.2666 42.0104 21.1976 42.0104C21.1149 42.0104 21.0321 42.0104 20.9494 42.0104C20.8666 42.0104 20.7839 42.0104 20.7012 42.0104C20.6184 42.0104 20.5357 42.0104 20.4529 42.0104C20.3702 42.0104 20.2875 42.0104 20.2047 41.9965C20.122 41.9965 20.0392 41.9965 19.9565 41.9827C19.8875 41.9827 19.8186 41.9689 19.7496 41.9689C19.7359 41.9689 19.7083 41.9689 19.6945 41.9689C19.6255 41.9689 19.5566 41.955 19.4876 41.955C19.3911 41.955 19.3084 41.9412 19.2118 41.9274C19.1291 41.9274 19.0464 41.9135 18.9636 41.8997C18.7154 41.872 18.4672 41.8444 18.2052 41.8167C18.1362 41.8029 18.0811 41.8029 18.0121 41.789C17.9018 41.7752 17.7915 41.7614 17.6811 41.7337C17.6122 41.7199 17.5295 41.706 17.4605 41.6922C17.3916 41.6784 17.3226 41.6645 17.2537 41.6507C17.1985 41.6369 17.1433 41.6369 17.0882 41.623C16.9779 41.5954 16.8675 41.5815 16.7434 41.5538C16.6745 41.54 16.6055 41.5262 16.5366 41.5123C16.4814 41.4985 16.4263 41.4847 16.3711 41.4708C16.3159 41.457 16.247 41.4432 16.1918 41.4293C16.1505 41.4155 16.0953 41.4017 16.0539 41.4017C15.8747 41.3602 15.7092 41.3187 15.5299 41.2633C15.461 41.2495 15.392 41.2218 15.3368 41.208C15.2679 41.1942 15.2127 41.1665 15.1438 41.1527C15.13 41.1527 15.13 41.1527 15.1162 41.1527C15.0473 41.1388 14.9921 41.1112 14.9231 41.0973C14.8542 41.0835 14.7852 41.0558 14.7163 41.0282C14.5232 40.9728 14.344 40.9037 14.1509 40.8483C14.1371 40.8483 14.1233 40.8345 14.0957 40.8345C14.0406 40.8207 13.9716 40.793 13.9165 40.7653C13.8475 40.7376 13.7786 40.7238 13.7234 40.6961C13.6545 40.6685 13.5993 40.6408 13.5304 40.627C13.4062 40.5716 13.2683 40.5301 13.1442 40.4748C13.0891 40.4471 13.0201 40.4195 12.965 40.4056C12.9512 40.4056 12.9374 40.3918 12.9374 40.3918C12.8822 40.3641 12.8133 40.3365 12.7581 40.3226C12.6892 40.295 12.634 40.2673 12.5651 40.2396C12.372 40.1566 12.1789 40.0736 11.9859 39.9768C11.9169 39.9491 11.8618 39.9214 11.7928 39.8799C11.5998 39.7831 11.4067 39.6863 11.2274 39.5894C11.1585 39.5618 11.1033 39.5203 11.0344 39.4926C10.9654 39.4649 10.9103 39.4234 10.8413 39.3958C9.15892 38.4689 7.57307 37.2791 6.13891 35.8542C3.2568 32.9629 1.39515 29.4491 0.540166 25.7554C0.402266 25.1606 0.291946 24.5795 0.209206 23.9708C0.112676 23.2653 0.043726 22.5459 0.016146 21.8266C-0.204494 16.1823 1.83643 10.4689 6.12512 6.15267C14.3026 -2.05089 27.5548 -2.05089 35.7323 6.15267C42.1446 12.5855 43.5236 22.1448 39.8831 29.9195C39.8693 29.9471 39.8555 29.9886 39.8417 30.0163C39.8279 30.0578 39.8141 30.0855 39.7865 30.127C39.7176 30.2791 39.6348 30.4313 39.5659 30.5697C39.5383 30.6388 39.4969 30.6942 39.4694 30.7633C39.4418 30.8187 39.4142 30.874 39.3728 30.9293C39.3452 30.9847 39.3177 31.04 39.2901 31.0815C39.2763 31.1092 39.2625 31.123 39.2487 31.1507C39.2211 31.1922 39.2074 31.2337 39.1798 31.2752C39.166 31.3029 39.1384 31.3444 39.1246 31.372C39.097 31.4135 39.0695 31.455 39.0557 31.4965C39.0281 31.5519 38.9867 31.621 38.9591 31.6764C38.9178 31.7455 38.8764 31.8147 38.835 31.8977C38.7937 31.9669 38.7523 32.0222 38.7109 32.0914C38.6695 32.1467 38.642 32.2021 38.6006 32.2574C38.6006 32.2712 38.5868 32.2851 38.5868 32.2851C38.5592 32.3266 38.5316 32.3681 38.5041 32.4234C38.4627 32.4788 38.4351 32.5341 38.3937 32.5894C38.3662 32.6448 38.3248 32.6863 38.2972 32.7416C38.2558 32.7969 38.2145 32.8523 38.1869 32.9076C38.1593 32.9491 38.1317 32.9906 38.1041 33.0321C38.049 33.1013 38.0076 33.1705 37.9525 33.2396C37.8697 33.3503 37.787 33.4748 37.6904 33.5855C37.6491 33.6408 37.6215 33.6823 37.5801 33.7376C37.5663 33.7653 37.5526 33.7791 37.525 33.8068C37.4974 33.8345 37.4698 33.876 37.456 33.9037C37.4284 33.9452 37.3871 33.9867 37.3595 34.0282C37.3457 34.042 37.3319 34.0697 37.3181 34.0835C37.2905 34.125 37.2492 34.1665 37.2216 34.208C37.194 34.2357 37.1664 34.2772 37.1388 34.3048C37.1251 34.3187 37.1251 34.3187 37.1113 34.3325C37.0699 34.3878 37.0285 34.4432 36.9872 34.4847C36.9044 34.5954 36.8079 34.6922 36.7251 34.8029C36.6976 34.8305 36.67 34.872 36.6424 34.8997C36.5872 34.955 36.5459 35.0104 36.4907 35.0657L36.4769 35.0795C36.4218 35.1349 36.3804 35.1902 36.3252 35.2455C36.3114 35.2732 36.2839 35.2871 36.2701 35.3147C36.2425 35.3424 36.2149 35.3839 36.1873 35.4116C36.1598 35.4392 36.1322 35.4807 36.0908 35.5084C36.0494 35.5637 35.9943 35.6052 35.9529 35.6606C35.9529 35.6744 35.9391 35.6744 35.9391 35.6744C35.8702 35.7989 35.8012 35.8681 35.7461 35.9234Z" fill="#4648D8"/>
<path d="M38.38 32.7001L38.3662 32.7139C38.3524 32.7416 38.3386 32.7693 38.3248 32.7831C38.2972 32.8246 38.2696 32.8661 38.2421 32.9076C38.2283 32.9353 38.2145 32.9629 38.1869 32.9768C38.1593 33.0044 38.1455 33.0321 38.118 33.0736C38.0766 33.129 38.049 33.1843 38.0076 33.2258C37.9663 33.295 37.9111 33.3641 37.856 33.4333C37.8284 33.4748 37.8008 33.5025 37.7732 33.544C37.7318 33.5993 37.6905 33.6546 37.6491 33.71C37.6215 33.7515 37.5939 33.793 37.5526 33.8345C37.5112 33.8898 37.4698 33.9452 37.4147 34.0143C37.2492 34.2218 37.0837 34.4293 36.9182 34.623C36.8631 34.6922 36.8079 34.7475 36.7528 34.8167C36.7114 34.872 36.6562 34.9274 36.6148 34.9689C36.6011 34.9965 36.5735 35.0104 36.5597 35.038C36.5183 35.0934 36.4632 35.1487 36.4218 35.1902C36.3666 35.2456 36.3115 35.3147 36.2563 35.3701C36.1874 35.4392 36.1184 35.5084 36.0495 35.5776C36.0081 35.6329 35.9529 35.6744 35.8978 35.7297C35.8426 35.7851 35.7874 35.8542 35.7185 35.9096C35.6633 35.9649 35.5944 36.0341 35.5392 36.0894C35.4841 36.1448 35.4151 36.2139 35.36 36.2693C35.3048 36.3246 35.2358 36.3799 35.1807 36.4353C35.1255 36.4906 35.0566 36.5459 35.0014 36.6013C34.9463 36.6428 34.8911 36.6981 34.8359 36.7396C34.8221 36.7535 34.8084 36.7673 34.7946 36.7811C34.7394 36.8226 34.698 36.878 34.6429 36.9195C34.5739 36.9748 34.505 37.044 34.436 37.0993C34.3671 37.1546 34.3119 37.21 34.243 37.2653C34.0499 37.4313 33.8431 37.5835 33.65 37.7357C33.5948 37.7772 33.5397 37.8187 33.4983 37.8602C33.4018 37.9293 33.319 37.9985 33.2225 38.0677C33.1673 38.1092 33.0984 38.1507 33.0432 38.1922C32.9881 38.2337 32.9329 38.2752 32.864 38.3167C32.8226 38.3444 32.7674 38.3859 32.7261 38.4135C32.6295 38.4827 32.533 38.538 32.4365 38.6072C32.3813 38.6487 32.3262 38.6902 32.2572 38.7179C32.202 38.7456 32.1607 38.7871 32.1055 38.8147C32.0504 38.8424 31.9952 38.8839 31.94 38.9116C31.8987 38.9392 31.8573 38.9669 31.8159 38.9946C31.6642 39.0914 31.5125 39.1744 31.3609 39.2712C31.3057 39.2989 31.2367 39.3404 31.1816 39.3681C31.1264 39.3958 31.0713 39.4373 31.0023 39.4649L30.9885 39.4788C30.9334 39.5064 30.8782 39.5479 30.8093 39.5756C30.7403 39.6171 30.6851 39.6448 30.6162 39.6724C30.4369 39.7693 30.2714 39.8523 30.0922 39.9353C30.0784 39.9491 30.0646 39.9491 30.0508 39.9629C29.9956 39.9906 29.9405 40.0183 29.8853 40.0459C29.8164 40.0736 29.7612 40.1013 29.6923 40.129C29.6233 40.1566 29.5682 40.1843 29.4992 40.212C29.3751 40.2673 29.2372 40.3226 29.1131 40.378C29.0579 40.4056 28.989 40.4333 28.9338 40.4471C28.92 40.4471 28.9062 40.461 28.9062 40.461C28.8511 40.4886 28.7821 40.5163 28.727 40.5301C28.658 40.5578 28.6029 40.5855 28.5339 40.6131C28.3408 40.6961 28.134 40.7653 27.9409 40.8345C27.872 40.8622 27.803 40.876 27.7479 40.9037C27.5548 40.9728 27.348 41.042 27.1411 41.0973C27.0722 41.125 27.0032 41.1388 26.9343 41.1527C26.8653 41.1665 26.7964 41.1942 26.7274 41.208C26.7274 41.208 26.7274 41.208 26.7136 41.208C24.8658 41.7475 22.9076 42.0242 20.8942 42.0242C16.8262 42.0242 13.0339 40.8622 9.82086 38.8424C9.80707 38.5934 9.72433 36.4353 9.77949 35.3701C10.1656 28.8958 13.0339 23.1685 17.4054 19.0598C17.9708 18.8523 18.674 18.6586 19.4739 18.4926C16.8813 20.7199 15.5023 23.9985 16.0539 27.8859C17.1571 35.5914 27.541 40.9452 36.5735 34.9412C36.6424 34.8582 36.7252 34.7752 36.7941 34.6922C36.8493 34.623 36.9182 34.5539 36.9734 34.4709C37.001 34.4432 37.0286 34.4155 37.0423 34.3878C37.0837 34.3325 37.1251 34.291 37.1665 34.2357C37.194 34.1942 37.2354 34.1527 37.263 34.1112C37.3044 34.0558 37.3595 34.0005 37.4009 33.9452C37.4285 33.9175 37.456 33.876 37.4698 33.8483C37.4974 33.8068 37.525 33.7792 37.5526 33.7376C37.6077 33.6685 37.6491 33.6131 37.6905 33.544C37.7456 33.4748 37.787 33.4195 37.8422 33.3503C37.8835 33.2811 37.9387 33.212 37.9801 33.1566C38.0076 33.129 38.0214 33.1013 38.049 33.0598C38.0904 33.0044 38.1317 32.9491 38.1731 32.8799C38.2007 32.8384 38.2421 32.7831 38.2697 32.7416C38.3248 32.7693 38.3524 32.7278 38.38 32.7001Z" fill="url(#paint0_linear_9_303)"/>
<path d="M41.8688 21.0795C41.8688 21.1625 41.8688 21.2456 41.8688 21.3286C41.8688 21.4254 41.8688 21.5084 41.8688 21.6052C41.8688 21.6606 41.8688 21.7297 41.8688 21.7851C41.8688 21.8127 41.8688 21.8404 41.8688 21.8681C41.8688 21.9096 41.8688 21.9649 41.8688 22.0064C41.8688 22.0479 41.8688 22.0894 41.8688 22.1309C41.8688 22.1863 41.8688 22.2554 41.855 22.3108C41.855 22.3938 41.8412 22.4629 41.8412 22.5459C41.8412 22.5874 41.8412 22.629 41.8274 22.6566C41.8136 22.7811 41.8136 22.9056 41.7998 23.0301C41.7998 23.0578 41.7998 23.0855 41.7861 23.127C41.7723 23.21 41.7723 23.2792 41.7585 23.3622C41.7585 23.4175 41.7447 23.4728 41.7447 23.5282C41.7309 23.6803 41.7033 23.8325 41.6895 23.9847C41.6757 24.04 41.6757 24.1092 41.6619 24.1645C41.6482 24.2199 41.6482 24.289 41.6344 24.3444C41.6344 24.372 41.6206 24.4135 41.6206 24.4412C41.6068 24.4827 41.6068 24.538 41.593 24.5795C41.5792 24.6487 41.5654 24.7179 41.5516 24.7871C41.524 24.9116 41.5103 25.0222 41.4827 25.1467C41.4689 25.2021 41.4551 25.2574 41.4551 25.3127C41.4413 25.3681 41.4275 25.4096 41.4275 25.4649C41.4137 25.5064 41.4137 25.5341 41.3999 25.5756C41.3861 25.6171 41.3861 25.6448 41.3724 25.6863C41.3586 25.7554 41.3448 25.8108 41.331 25.8799C41.3172 25.9491 41.3034 26.0044 41.2896 26.0736C41.2896 26.1013 41.2758 26.129 41.2758 26.1566C41.262 26.2396 41.2345 26.3088 41.2207 26.3918C41.2069 26.461 41.1793 26.5301 41.1655 26.6131C41.1655 26.627 41.1655 26.627 41.1655 26.6408C41.1517 26.71 41.1241 26.793 41.1103 26.8622C41.069 27.0143 41.0276 27.1665 40.9724 27.3187C40.9449 27.3878 40.9311 27.457 40.9035 27.5262C40.8897 27.5815 40.8621 27.6507 40.8483 27.706C40.8483 27.7199 40.8345 27.7337 40.8345 27.7475C40.8208 27.8029 40.807 27.8444 40.7794 27.8997C40.7656 27.955 40.7518 27.9965 40.7242 28.0519C40.7104 28.1072 40.6829 28.1487 40.6691 28.204C40.6691 28.2179 40.6691 28.2179 40.6553 28.2317C40.6277 28.3009 40.6139 28.3701 40.5863 28.4254C40.5863 28.4392 40.5863 28.4392 40.5725 28.4531C40.5312 28.5637 40.4898 28.6606 40.4484 28.7712C40.4208 28.8266 40.4071 28.8819 40.3795 28.9234C40.3519 28.9788 40.3381 29.0341 40.3105 29.0756C40.3105 29.0894 40.2967 29.1033 40.2967 29.1171C40.2967 29.1309 40.2829 29.1448 40.2829 29.1586C40.2554 29.2139 40.2416 29.2554 40.214 29.3108V29.3246C40.1175 29.5321 40.0347 29.7535 39.9382 29.961C39.8692 30.0993 39.8003 30.2376 39.7313 30.3898C39.69 30.459 39.6624 30.5282 39.621 30.5973C39.5934 30.6527 39.5659 30.708 39.5383 30.7633C39.5245 30.791 39.5107 30.8187 39.4969 30.8463C39.4969 30.8602 39.4831 30.8602 39.4831 30.874C39.4831 30.874 39.4831 30.8878 39.4693 30.8878C39.428 30.957 39.4004 31.0262 39.359 31.0954C39.2763 31.2614 39.1797 31.4274 39.0832 31.5934C39.0694 31.6072 39.0694 31.621 39.0556 31.6349C38.9729 31.7871 38.8764 31.9392 38.7798 32.0914C38.7385 32.1606 38.6971 32.2297 38.6419 32.2989C38.6281 32.3266 38.6006 32.3542 38.5868 32.3958C38.5868 32.3958 38.5868 32.3957 38.5868 32.4096C38.5454 32.4649 38.5178 32.5203 38.4765 32.5756C38.4489 32.6171 38.4351 32.6448 38.4075 32.6863C38.3937 32.7001 38.3937 32.7139 38.3799 32.7278L38.3661 32.7416C38.3386 32.7693 38.3248 32.8108 38.2972 32.8384C38.2696 32.8799 38.2282 32.9353 38.2007 32.9768C38.1593 33.0321 38.1179 33.0874 38.0765 33.1566C38.049 33.1843 38.0352 33.212 38.0076 33.2535C37.9662 33.3226 37.9111 33.3918 37.8697 33.4471C37.8283 33.5163 37.7732 33.5855 37.718 33.6408C37.6766 33.71 37.6215 33.7653 37.5801 33.8345C37.5525 33.876 37.5249 33.9037 37.4974 33.9452C37.4698 33.9728 37.4422 34.0143 37.4284 34.042C37.387 34.0973 37.3457 34.1527 37.2905 34.208C37.2629 34.2495 37.2216 34.291 37.194 34.3325C37.1526 34.3878 37.1112 34.4293 37.0699 34.4847C37.0423 34.5123 37.0147 34.54 37.0009 34.5677C36.9458 34.6369 36.8768 34.706 36.8217 34.789C36.7527 34.872 36.6838 34.955 36.601 35.038C27.5686 41.042 17.1847 35.6882 16.0815 27.9827C15.5299 24.0954 16.8951 20.8167 19.5014 18.5894C20.4253 18.3958 21.4734 18.2297 22.5766 18.1191C22.549 18.1467 22.5214 18.1744 22.5076 18.1882C22.3697 18.3404 22.2318 18.4926 22.1077 18.6586C22.0939 18.6863 22.0663 18.7139 22.0525 18.7416C22.025 18.7831 21.9974 18.8246 21.9698 18.8661C21.9146 18.9491 21.8595 19.0321 21.8043 19.1151C21.7767 19.1566 21.7492 19.1981 21.7216 19.2396C21.694 19.2811 21.6802 19.3088 21.6526 19.3503C21.5975 19.4471 21.5423 19.5301 21.5009 19.627C21.4596 19.7238 21.4044 19.8068 21.363 19.9037C21.3355 19.9728 21.2941 20.0558 21.2665 20.125C21.1976 20.291 21.1424 20.4709 21.0872 20.6369C21.0735 20.6784 21.0735 20.706 21.0597 20.7475C21.0459 20.8167 21.0183 20.8859 21.0045 20.955C20.9907 21.0242 20.9769 21.0934 20.9631 21.1625C20.9493 21.2317 20.9356 21.3009 20.9218 21.3701C20.8942 21.5084 20.8804 21.6606 20.8666 21.7989C20.8666 21.8681 20.8528 21.9373 20.8528 22.0064C20.8252 22.629 20.8804 23.2515 21.0183 23.8463C21.0459 23.9847 21.0872 24.1092 21.1148 24.2337C21.1424 24.3167 21.17 24.3997 21.1976 24.4965C21.2251 24.5795 21.2527 24.6625 21.2803 24.7456C21.2941 24.7871 21.3079 24.8286 21.3217 24.8701C21.3355 24.8977 21.3493 24.9392 21.363 24.9669C21.4044 25.0637 21.4458 25.1606 21.4872 25.2574C21.5423 25.3819 21.6113 25.5064 21.6802 25.6309C21.7354 25.7278 21.7767 25.8108 21.8319 25.9076C21.8871 26.0044 21.9422 26.0875 21.9974 26.1705C22.0525 26.2535 22.1077 26.3365 22.1767 26.4195C22.1904 26.4471 22.218 26.4748 22.2318 26.5025C22.2732 26.5578 22.3146 26.6131 22.3559 26.6685C22.4387 26.7791 22.5214 26.876 22.6179 26.9728C22.6593 27.0282 22.7007 27.0697 22.7558 27.1112C22.7972 27.1527 22.8524 27.208 22.8937 27.2495C22.9627 27.3187 23.0316 27.3878 23.1006 27.4432C23.142 27.4708 23.1695 27.5124 23.2109 27.54C23.2799 27.5954 23.3488 27.6507 23.4178 27.706C23.5281 27.789 23.6522 27.872 23.7625 27.955C24.3141 28.3147 24.8657 28.5914 25.4311 28.8127C25.5138 28.8404 25.5828 28.8681 25.6655 28.8957C25.8172 28.9511 25.9551 28.9926 26.1068 29.0341C26.1482 29.0479 26.2033 29.0618 26.2585 29.0756C26.3137 29.0894 26.355 29.1033 26.4102 29.1171C26.5067 29.1448 26.6033 29.1724 26.6998 29.1863C26.7963 29.2139 26.8928 29.2278 26.9894 29.2416C27.1411 29.2693 27.279 29.2969 27.4307 29.3108C27.5272 29.3246 27.6237 29.3384 27.7202 29.3384C28.4511 29.4076 29.1682 29.3661 29.8715 29.2416C29.9404 29.2278 30.0094 29.2139 30.0783 29.2001C30.1473 29.1863 30.2162 29.1724 30.2852 29.1586C30.3128 29.1586 30.3266 29.1448 30.3541 29.1448C30.492 29.1171 30.6299 29.0756 30.7816 29.0341C30.8782 29.0064 30.9609 28.9788 31.0574 28.9511C31.154 28.9234 31.2367 28.8957 31.3332 28.8542C31.3608 28.8404 31.3884 28.8266 31.4298 28.8266C31.5263 28.7851 31.6228 28.7574 31.7193 28.7159C31.9124 28.6329 32.0917 28.5637 32.2847 28.4669C32.3537 28.4392 32.4226 28.3977 32.4916 28.3701C32.5605 28.3286 32.6295 28.3009 32.6984 28.2594C32.795 28.2179 32.8777 28.1625 32.9742 28.1072C33.1121 28.0242 33.25 27.955 33.3741 27.872C33.4155 27.8444 33.4707 27.8167 33.5121 27.789C33.5948 27.7337 33.6913 27.6784 33.7741 27.623C33.9533 27.4985 34.1188 27.3878 34.2981 27.2495C34.4222 27.1527 34.5601 27.0558 34.6842 26.959C34.8497 26.8207 35.0152 26.6823 35.1806 26.544C35.3048 26.4333 35.4289 26.3226 35.5392 26.212C36.4217 25.3819 37.2216 24.4135 37.9111 23.376C37.9662 23.293 38.0214 23.21 38.0765 23.127C38.1731 22.9886 38.2558 22.8365 38.3386 22.6981C38.3937 22.6013 38.4489 22.5044 38.504 22.4076C38.5316 22.3523 38.5592 22.3108 38.5868 22.2554C38.6144 22.2001 38.6419 22.1586 38.6695 22.1033C38.7523 21.9511 38.835 21.8127 38.9039 21.6606C38.9867 21.5084 39.0556 21.3562 39.1246 21.2041C39.1935 21.0519 39.2625 20.8997 39.3314 20.7475C39.359 20.6922 39.3728 20.6507 39.4004 20.5954C39.4693 20.4432 39.5245 20.291 39.5934 20.125C39.621 20.0697 39.6348 20.0143 39.6486 19.9728C39.7038 19.8207 39.7589 19.6546 39.8141 19.5025C39.8279 19.4471 39.8555 19.3918 39.8692 19.3503C39.9106 19.2396 39.9382 19.1428 39.9658 19.0321C39.9934 18.9214 40.0347 18.8246 40.0623 18.7139C40.0899 18.6033 40.1175 18.5064 40.145 18.3958C40.1588 18.3404 40.1726 18.2851 40.1864 18.2297C40.2278 18.0776 40.2692 17.9116 40.2967 17.7594C40.3243 17.6487 40.3381 17.5519 40.3657 17.4412C40.3933 17.2752 40.4346 17.1092 40.4622 16.9432C40.4898 16.8048 40.5036 16.6527 40.5312 16.5143C40.545 16.4452 40.545 16.376 40.5587 16.3068C40.5863 16.0163 40.6139 15.7258 40.6277 15.4491C40.6415 15.2139 40.6415 14.9926 40.6415 14.7574C40.6415 14.7021 40.6415 14.6329 40.6415 14.5776C40.6415 14.5361 40.6415 14.4946 40.6415 14.4531C40.6415 14.2871 40.6277 14.1349 40.6139 13.9827L40.6553 13.9689C40.6691 13.9965 40.6829 14.038 40.6966 14.0657C40.7104 14.1072 40.7242 14.1349 40.738 14.1764C40.7656 14.2456 40.7932 14.3147 40.807 14.3839C40.8345 14.4807 40.8759 14.5776 40.9035 14.6744C40.9173 14.7297 40.9449 14.7851 40.9587 14.8543C40.9724 14.9096 41 14.9788 41.0138 15.0341C41.0276 15.0618 41.0276 15.0894 41.0414 15.1171C41.069 15.2139 41.0966 15.3108 41.1241 15.4076C41.1379 15.4491 41.1379 15.4768 41.1517 15.5183C41.1655 15.546 41.1655 15.5736 41.1793 15.6013C41.1931 15.6566 41.2069 15.712 41.2207 15.7673C41.2345 15.795 41.2345 15.8365 41.2482 15.8641C41.262 15.9056 41.262 15.9471 41.2758 15.9886C41.2758 15.9886 41.2758 15.9886 41.2758 16.0025C41.2896 16.044 41.2896 16.0855 41.3034 16.127C41.3034 16.1408 41.3034 16.1408 41.3034 16.1546C41.331 16.2792 41.3586 16.4175 41.3999 16.542C41.3999 16.5558 41.3999 16.5697 41.4137 16.5835C41.4275 16.6388 41.4413 16.6803 41.4413 16.7357C41.4551 16.8048 41.4689 16.8602 41.4827 16.9293C41.4965 16.9847 41.5103 17.04 41.524 17.1092C41.524 17.1369 41.5378 17.1507 41.5378 17.1784C41.5516 17.2199 41.5516 17.2614 41.5654 17.3029C41.5654 17.3167 41.5654 17.3305 41.5654 17.3444C41.5654 17.3859 41.5792 17.4135 41.5792 17.455C41.5792 17.4827 41.593 17.4965 41.593 17.5242C41.6068 17.5657 41.6068 17.621 41.6206 17.6626C41.6206 17.6764 41.6206 17.6902 41.6344 17.7041C41.6344 17.7317 41.6344 17.7456 41.6482 17.7732C41.6619 17.8839 41.6757 17.9807 41.7033 18.0914C41.7033 18.1052 41.7033 18.1191 41.7033 18.1329C41.7171 18.1882 41.7171 18.2574 41.7309 18.3127C41.7309 18.3404 41.7447 18.3681 41.7447 18.3958C41.7447 18.4373 41.7585 18.4788 41.7585 18.5203C41.7723 18.5756 41.7723 18.6309 41.7723 18.6863C41.7723 18.7139 41.7723 18.7416 41.7861 18.7554C41.7861 18.8108 41.7998 18.8523 41.7998 18.9076C41.8136 19.1013 41.8412 19.295 41.855 19.4748C41.855 19.544 41.8688 19.6131 41.8688 19.6823C41.8688 19.7238 41.8688 19.7653 41.8826 19.8207C41.8826 19.9037 41.8964 20.0005 41.8964 20.0835C41.8964 20.1527 41.8964 20.2218 41.9102 20.291C41.9102 20.4017 41.924 20.5262 41.924 20.6369C41.924 20.6645 41.924 20.706 41.924 20.7337C41.924 20.7752 41.924 20.8167 41.924 20.872C41.8688 20.8997 41.8688 20.9965 41.8688 21.0795Z" fill="url(#paint1_linear_9_303)"/>
<path d="M27.541 12.5716C26.4378 12.4471 25.6931 12.4886 25.6931 12.4886C25.6931 12.4886 25.5552 12.5163 25.3208 12.5993C24.5209 12.0183 23.5556 11.6448 22.5076 11.5894C21.2803 11.5203 20.1219 11.8661 19.1704 12.5163C19.1153 12.5163 19.0739 12.5025 19.0187 12.5025C12.8684 11.8246 7.09038 14.3009 3.29813 18.6448C3.22918 18.7278 3.14644 18.8246 3.0637 18.9214H3.04991C2.81548 18.9214 2.52589 18.9491 2.25009 19.0459C1.4089 19.3503 0.843506 19.9867 0.843506 19.9867C1.71228 15.0203 4.60818 10.8147 8.59349 8.18626L7.11796 7.93725C10.3862 6.01433 14.537 5.25346 18.605 5.25346C27.8168 5.26729 31.4159 10.9807 27.541 12.5716Z" fill="url(#paint2_linear_9_303)"/>
<path d="M34.0774 20.5539C34.0774 17.9531 27.7478 17.538 22.5903 18.0776C21.4871 18.1882 20.4391 18.3542 19.5152 18.5479C18.7153 18.7139 17.9983 18.9076 17.4467 19.1151C17.75 18.8246 18.0672 18.5479 18.3982 18.2712C18.4533 18.2159 18.5223 18.1744 18.5774 18.1191L18.5912 18.1052C18.6464 18.0637 18.7015 18.0084 18.7567 17.9669C18.7705 17.9669 18.7705 17.9531 18.7705 17.9531C18.8257 17.9116 18.8808 17.8562 18.9498 17.8147C18.9498 17.8147 18.9636 17.8147 18.9636 17.8009C19.2118 17.6072 19.4738 17.4135 19.722 17.2199L19.7358 17.206C19.791 17.1645 19.8461 17.123 19.9151 17.0815C19.9289 17.0815 19.9289 17.0677 19.9426 17.0677C19.9978 17.0262 20.053 16.9847 20.1081 16.957C20.1219 16.9432 20.1495 16.9293 20.1633 16.9155C20.2047 16.8878 20.2598 16.8463 20.3012 16.8187C20.315 16.8187 20.315 16.8048 20.3288 16.8048C20.5218 16.6665 20.7287 16.542 20.9217 16.4037C20.9217 16.4037 20.9355 16.4037 20.9355 16.3898C20.9907 16.3483 21.0596 16.3068 21.1148 16.2792C21.1286 16.2653 21.1424 16.2653 21.1562 16.2515C21.2113 16.2238 21.2665 16.1823 21.3079 16.1546C21.3216 16.1408 21.3354 16.1408 21.363 16.127C21.4182 16.0993 21.4595 16.0578 21.5147 16.0301C21.5285 16.0163 21.5423 16.0163 21.5561 16.0025C21.6112 15.9748 21.6664 15.9333 21.7216 15.9056C21.7353 15.8918 21.7491 15.8918 21.7629 15.878C21.8319 15.8365 21.9008 15.795 21.9698 15.7673C22.1077 15.6843 22.2456 15.6151 22.3835 15.5321C22.3973 15.5183 22.4111 15.5183 22.4386 15.5044C22.4938 15.4768 22.5352 15.4491 22.5903 15.4214C22.6041 15.4076 22.6317 15.3938 22.6593 15.3938H22.6731C22.7144 15.3661 22.7558 15.3523 22.7972 15.3246C22.8248 15.3108 22.8385 15.2969 22.8661 15.2831C22.9075 15.2554 22.9627 15.2278 23.004 15.2139C23.0316 15.2001 23.0454 15.1863 23.073 15.1863C23.1143 15.1586 23.1695 15.1309 23.2109 15.1171C23.2385 15.1033 23.2522 15.1033 23.2798 15.0894C23.3488 15.0618 23.4039 15.0203 23.4729 14.9926C23.4729 14.9926 23.4867 14.9926 23.4867 14.9788C23.5556 14.9511 23.6246 14.9096 23.6935 14.8819C23.7073 14.8681 23.7211 14.8681 23.7487 14.8543C23.8038 14.8266 23.859 14.8127 23.9004 14.7851C23.928 14.7712 23.9555 14.7574 23.9693 14.7436C24.0107 14.7297 24.0659 14.7021 24.1072 14.6882C24.1348 14.6744 24.1624 14.6606 24.19 14.6467C24.2313 14.6329 24.2727 14.6052 24.3141 14.5914C24.3417 14.5776 24.3692 14.5637 24.3968 14.5499C24.4382 14.5361 24.4796 14.5084 24.5347 14.4946C24.5623 14.4807 24.5899 14.4669 24.6175 14.4531C24.6726 14.4392 24.714 14.4116 24.7554 14.3977C24.7829 14.3839 24.7967 14.3839 24.8243 14.3701C24.8933 14.3424 24.9622 14.3147 25.0312 14.2871C24.4933 14.0242 23.9555 13.789 23.3901 13.5815C24.2451 13.0697 24.9346 12.793 25.3345 12.6408C25.569 12.5578 25.7069 12.5301 25.7069 12.5301C25.7069 12.5301 26.4377 12.4748 27.5547 12.6131C29.3199 12.8207 32.0089 13.4709 34.2153 15.4629C35.8287 16.9155 35.0979 19.4056 34.0774 20.5539Z" fill="url(#paint3_linear_9_303)"/>
<path d="M25.0312 14.2594C24.9622 14.2871 24.8933 14.3147 24.8243 14.3424C24.7968 14.3562 24.783 14.3562 24.7554 14.3701C24.714 14.3839 24.6589 14.4116 24.6175 14.4254C24.5899 14.4392 24.5623 14.4531 24.5347 14.4669C24.4934 14.4807 24.452 14.5084 24.3968 14.5222C24.3693 14.5361 24.3417 14.5499 24.3141 14.5637C24.2727 14.5776 24.2314 14.6052 24.19 14.6191C24.1624 14.6329 24.1348 14.6467 24.1073 14.6606C24.0659 14.6744 24.0107 14.7021 23.9694 14.7159C23.9418 14.7297 23.9142 14.7436 23.9004 14.7574C23.8452 14.7851 23.7901 14.7989 23.7487 14.8266C23.7349 14.8404 23.7211 14.8404 23.6936 14.8543C23.6246 14.8819 23.5557 14.9234 23.4867 14.9511C23.4867 14.9511 23.4729 14.9511 23.4729 14.9649C23.404 14.9926 23.3488 15.0341 23.2799 15.0618C23.2523 15.0756 23.2385 15.0894 23.2109 15.0894C23.1695 15.1171 23.1144 15.1448 23.073 15.1586C23.0454 15.1724 23.0316 15.1863 23.0041 15.2001C22.9627 15.2278 22.9075 15.2416 22.8662 15.2693C22.8386 15.2831 22.8248 15.2969 22.7972 15.3108C22.7558 15.3384 22.7145 15.3523 22.6731 15.3799C22.6731 15.3799 22.6731 15.3799 22.6593 15.3799C22.6317 15.3938 22.6179 15.4076 22.5904 15.4076C22.5352 15.4353 22.4938 15.4629 22.4387 15.4906C22.4249 15.5044 22.4111 15.5044 22.3835 15.5183C22.2456 15.6013 22.1077 15.6705 21.9698 15.7535C21.9009 15.795 21.8319 15.8365 21.7767 15.8641C21.763 15.878 21.7492 15.878 21.7354 15.8918C21.6802 15.9195 21.6251 15.961 21.5699 15.9886C21.5561 16.0025 21.5423 16.0025 21.5285 16.0163C21.4734 16.044 21.432 16.0855 21.3768 16.1131C21.363 16.127 21.3493 16.127 21.3355 16.1408C21.2803 16.1685 21.2251 16.21 21.1838 16.2376C21.17 16.2515 21.1562 16.2515 21.1424 16.2653C21.0872 16.3068 21.0183 16.3483 20.9631 16.376C20.9631 16.376 20.9493 16.376 20.9493 16.3898C20.7425 16.5143 20.5494 16.6527 20.3564 16.791C20.3426 16.791 20.3426 16.8048 20.3288 16.8048C20.2874 16.8325 20.2323 16.874 20.1909 16.9017C20.1771 16.9155 20.1495 16.9293 20.1357 16.9432C20.0806 16.9847 20.0254 17.0262 19.9703 17.0677C19.9565 17.0677 19.9565 17.0815 19.9427 17.0815C19.8875 17.123 19.8324 17.1645 19.7634 17.206L19.7496 17.2199C19.4876 17.4135 19.2394 17.6072 18.9912 17.8009C18.9912 17.8009 18.9774 17.8009 18.9774 17.8147C18.9222 17.8562 18.8671 17.9116 18.7981 17.9531L18.7843 17.9669C18.7292 18.0084 18.674 18.0637 18.6188 18.1052L18.605 18.1191C18.5499 18.1744 18.4809 18.2159 18.4258 18.2712C18.1086 18.5479 17.7914 18.8246 17.4743 19.1151C13.0753 23.2238 10.2069 28.9511 9.82081 35.4254C9.75186 36.4906 9.84839 38.6626 9.86218 38.8977C9.79323 38.8562 9.73807 38.8147 9.66912 38.7732C9.60017 38.7317 9.54501 38.6902 9.47606 38.6487C9.4209 38.6072 9.36574 38.5795 9.31058 38.538C9.26921 38.5104 9.21405 38.4827 9.17268 38.4412C9.13131 38.4135 9.08994 38.3859 9.04857 38.3582C8.81414 38.1922 8.5935 38.0262 8.35907 37.8602C8.3177 37.8325 8.27633 37.8048 8.24875 37.7772C5.33906 35.5499 3.64289 32.0499 3.79458 28.3839C3.79458 28.3147 3.79458 28.2594 3.80837 28.1902C3.87732 27.1112 4.08417 26.0875 4.42892 25.1191C4.01522 25.4649 3.51878 25.9353 3.06371 26.5716C2.36042 27.54 1.91914 28.8681 1.82261 29.6705C-0.163156 24.0262 1.93293 20.3463 3.04992 18.9214C3.13266 18.8108 3.2154 18.7278 3.28435 18.6448C7.09039 14.3147 12.8684 11.8384 19.0187 12.5163C19.0739 12.5163 19.1153 12.5301 19.1704 12.5301C20.646 12.71 22.0525 13.0558 23.3764 13.54C23.9418 13.7614 24.4934 13.9965 25.0312 14.2594Z" fill="url(#paint4_linear_9_303)"/>
<defs>
<linearGradient id="paint0_linear_9_303" x1="24.088" y1="38.7845" x2="24.088" y2="12.9357" gradientUnits="userSpaceOnUse">
<stop stop-color="white" stop-opacity="0.4"/>
<stop offset="1" stop-color="white"/>
</linearGradient>
<linearGradient id="paint1_linear_9_303" x1="23.6524" y1="17.6287" x2="36.3039" y2="30.2399" gradientUnits="userSpaceOnUse">
<stop stop-color="white" stop-opacity="0.3"/>
<stop offset="1" stop-color="white"/>
</linearGradient>
<linearGradient id="paint2_linear_9_303" x1="0.845216" y1="12.6307" x2="29.0789" y2="12.6307" gradientUnits="userSpaceOnUse">
<stop stop-color="white" stop-opacity="0.2"/>
<stop offset="1" stop-color="white"/>
</linearGradient>
<linearGradient id="paint3_linear_9_303" x1="21.0327" y1="12.4678" x2="28.9714" y2="20.3812" gradientUnits="userSpaceOnUse">
<stop stop-color="white" stop-opacity="0.2"/>
<stop offset="1" stop-color="white"/>
</linearGradient>
<linearGradient id="paint4_linear_9_303" x1="1.01455" y1="25.6533" x2="25.0264" y2="25.6533" gradientUnits="userSpaceOnUse">
<stop stop-color="white" stop-opacity="0.3"/>
<stop offset="1" stop-color="white"/>
</linearGradient>
</defs>
</svg>
